<svg class="w-5 h-5  transition duration-75 dark:text-gray-400  dark:group-hover:text-white" aria-hidden="true"  xmlns="http://www.w3.org/2000/svg" version="1.1" xmlns:xlink="http://www.w3.org/1999/xlink" x="0" y="0" viewBox="0 0 512 512" style="enable-background:new 0 0 512 512" xml:space="preserve" class=""><g><path d="M377.621 223.18v-84.843c.041-.039.085-.073.125-.113l66.218-66.244a7.397 7.397 0 0 1 1.858 4.94 7.338 7.338 0 0 1-2.168 5.243l-55.275 55.304a7.995 7.995 0 0 0 5.654 13.645 7.97 7.97 0 0 0 5.654-2.343l55.26-55.289c4.418-4.396 6.854-10.271 6.862-16.541.008-6.284-2.425-12.181-6.849-16.604l-9.535-9.535 7.892-7.875c6.609-6.609 6.61-17.365.013-23.962l-6.018-6.045c-6.599-6.544-17.332-6.543-23.952.023l-7.897 7.897-3.135-3.135a7.993 7.993 0 0 0-11.304 0l-23.402 23.402v-8.282a7.994 7.994 0 0 0-7.994-7.994H61.189c-23.633 0-42.86 19.214-42.86 42.832v365.867c0 23.617 19.228 42.832 42.86 42.832h206.99c23.501 17.359 52.536 27.638 83.929 27.638 78.058 0 141.562-63.505 141.562-141.562.001-69.351-50.126-127.208-116.049-139.256zm-108.452-7.55-22.03 4.592 4.593-22.03 87.328-87.328 17.432 17.419zM434.642 24.267c.371-.366 1.042-.366 1.377-.036l5.994 6.022c.363.364.364 1.003.006 1.361l-7.897 7.881-7.354-7.354zm-27.966 10.391 26 26.001-60.586 60.61-26.022-26.002zm-45.043 22.434-32.524 32.524a7.976 7.976 0 0 0-2.084 3.68 7.97 7.97 0 0 0-5.7-2.393H109.491a7.994 7.994 0 1 0 0 15.988h210.932l-30.756 30.756H109.491a7.994 7.994 0 1 0 0 15.988H273.68l-30.756 30.756H109.491a7.994 7.994 0 1 0 0 15.988h125.454l-5.401 25.908-4.848 4.848H109.491a7.994 7.994 0 1 0 0 15.988h118.517c2.12 0 4.153-.842 5.652-2.341l6.843-6.843 34.264-7.141a7.992 7.992 0 0 0 4.022-2.174l28.235-28.244h14.3a7.994 7.994 0 0 0 7.994-7.994c0-3.89-2.781-7.128-6.462-7.843l38.776-38.788v75.448c-3.149-.21-6.323-.328-9.524-.328-46.386 0-87.631 22.426-113.466 57.004H109.491a7.994 7.994 0 1 0 0 15.988h118.808a140.697 140.697 0 0 0-12.609 30.727H109.491a7.994 7.994 0 1 0 0 15.988h102.743a142.02 142.02 0 0 0-1.688 21.854c0 9.665.977 19.106 2.831 28.232H69.184V40.815h292.449zM53.195 42.028v349.397a42.697 42.697 0 0 0-18.878 8.746V67.659c0-12.022 7.953-22.223 18.878-25.631zM34.317 433.526c0-14.817 12.055-26.872 26.872-26.872h156.438c6.697 20.316 17.873 38.615 32.361 53.716H61.189c-14.817 0-26.872-12.042-26.872-26.844zm317.791 54.482c-69.242 0-125.574-56.332-125.574-125.574s56.332-125.575 125.574-125.575 125.574 56.333 125.574 125.575c0 21.876-5.628 42.459-15.504 60.389.027-.266.057-.532.057-.804v-34.866a7.994 7.994 0 0 0-4.006-6.928l-7.418-4.271v-38.97l.068-.018a7.994 7.994 0 0 0 0-15.452l-99.411-26.419a8 8 0 0 0-4.105 0l-99.411 26.419a7.994 7.994 0 0 0 0 15.452l25.495 6.775v48.145a7.994 7.994 0 0 0 6.555 7.863c11.557 2.115 21.091 3.961 28.751 5.444 20.138 3.897 30.392 5.846 40.652 5.846 10.258 0 20.522-1.949 40.663-5.846 7.663-1.483 17.2-3.328 28.762-5.444a7.971 7.971 0 0 0 4.569-2.6v24.87a7.994 7.994 0 0 0 12.798 6.388l6.62-4.978 6.62 4.978a7.988 7.988 0 0 0 9.362.176c-22.179 35.645-61.707 59.425-106.691 59.425zm94.139-96.234v14.434a7.99 7.99 0 0 0-6.86 0v-14.434l3.43-1.976zm-96.831-44.386-68.288-18.147 68.288-18.147 68.288 18.147zm-59.98.602 57.928 15.395a7.975 7.975 0 0 0 4.106 0l57.928-15.395v37.242a3084.845 3084.845 0 0 0-22.365 4.265c-37.629 7.28-37.629 7.28-75.24 0-6.2-1.2-13.621-2.637-22.355-4.264V347.99zm135.949-4.249 9.438-2.508v34.721l-7.418 4.271a7.987 7.987 0 0 0-2.021 1.681v-38.165z" fill="currentColor" opacity="1" ></path></g></svg>
